<svg width="27" height="25" viewBox="0 0 27 25" fill="none" xmlns="http://www.w3.org/2000/svg">
<path d="M2.29297 22.6563C2.29297 23.2779 2.5862 23.874 3.10815 24.3135C3.6301 24.7531 4.33802 25 5.07617 25H21.7754C22.5135 25 23.2215 24.7531 23.7434 24.3135C24.2654 23.874 24.5586 23.2779 24.5586 22.6563V6.25001H2.29297V22.6563ZM18.0645 10.1563C18.0645 9.94906 18.1622 9.75034 18.3362 9.60383C18.5102 9.45732 18.7461 9.37501 18.9922 9.37501C19.2382 9.37501 19.4742 9.45732 19.6482 9.60383C19.8222 9.75034 19.9199 9.94906 19.9199 10.1563V21.0938C19.9199 21.301 19.8222 21.4997 19.6482 21.6462C19.4742 21.7927 19.2382 21.875 18.9922 21.875C18.7461 21.875 18.5102 21.7927 18.3362 21.6462C18.1622 21.4997 18.0645 21.301 18.0645 21.0938V10.1563ZM12.498 10.1563C12.498 9.94906 12.5958 9.75034 12.7698 9.60383C12.9438 9.45732 13.1797 9.37501 13.4258 9.37501C13.6718 9.37501 13.9078 9.45732 14.0818 9.60383C14.2558 9.75034 14.3535 9.94906 14.3535 10.1563V21.0938C14.3535 21.301 14.2558 21.4997 14.0818 21.6462C13.9078 21.7927 13.6718 21.875 13.4258 21.875C13.1797 21.875 12.9438 21.7927 12.7698 21.6462C12.5958 21.4997 12.498 21.301 12.498 21.0938V10.1563ZM6.93164 10.1563C6.93164 9.94906 7.02938 9.75034 7.20337 9.60383C7.37735 9.45732 7.61332 9.37501 7.85938 9.37501C8.10543 9.37501 8.3414 9.45732 8.51538 9.60383C8.68937 9.75034 8.78711 9.94906 8.78711 10.1563V21.0938C8.78711 21.301 8.68937 21.4997 8.51538 21.6462C8.3414 21.7927 8.10543 21.875 7.85938 21.875C7.61332 21.875 7.37735 21.7927 7.20337 21.6462C7.02938 21.4997 6.93164 21.301 6.93164 21.0938V10.1563ZM25.4863 1.56251H18.5283L17.9833 0.649423C17.8678 0.454215 17.69 0.29001 17.4697 0.175281C17.2495 0.0605526 16.9956 -0.00014785 16.7366 8.5609e-06H10.1091C9.85075 -0.000827891 9.5973 0.0596463 9.37785 0.174503C9.15839 0.289359 8.98179 0.453951 8.86829 0.649423L8.32324 1.56251H1.36523C1.11918 1.56251 0.883211 1.64482 0.709227 1.79133C0.535243 1.93784 0.4375 2.13656 0.4375 2.34376L0.4375 3.90626C0.4375 4.11346 0.535243 4.31217 0.709227 4.45869C0.883211 4.6052 1.11918 4.68751 1.36523 4.68751H25.4863C25.7324 4.68751 25.9684 4.6052 26.1423 4.45869C26.3163 4.31217 26.4141 4.11346 26.4141 3.90626V2.34376C26.4141 2.13656 26.3163 1.93784 26.1423 1.79133C25.9684 1.64482 25.7324 1.56251 25.4863 1.56251Z" fill="#1D6154"/>
</svg>
