<svg width="25" height="25" viewBox="0 0 25 25" fill="none" xmlns="http://www.w3.org/2000/svg">
<path d="M21.875 3.12622H16.6667C16.6667 1.40259 14.7982 0.0012207 12.5 0.0012207C10.2018 0.0012207 8.33333 1.40259 8.33333 3.12622H3.125C1.39974 3.12622 0 4.17603 0 5.46997V22.6575C0 23.9514 1.39974 25.0012 3.125 25.0012H21.875C23.6003 25.0012 25 23.9514 25 22.6575V5.46997C25 4.17603 23.6003 3.12622 21.875 3.12622ZM6.25 20.7043C5.38411 20.7043 4.6875 20.1819 4.6875 19.5325C4.6875 18.8831 5.38411 18.3606 6.25 18.3606C7.11589 18.3606 7.8125 18.8831 7.8125 19.5325C7.8125 20.1819 7.11589 20.7043 6.25 20.7043ZM6.25 16.0168C5.38411 16.0168 4.6875 15.4944 4.6875 14.845C4.6875 14.1956 5.38411 13.6731 6.25 13.6731C7.11589 13.6731 7.8125 14.1956 7.8125 14.845C7.8125 15.4944 7.11589 16.0168 6.25 16.0168ZM6.25 11.3293C5.38411 11.3293 4.6875 10.8069 4.6875 10.1575C4.6875 9.50806 5.38411 8.9856 6.25 8.9856C7.11589 8.9856 7.8125 9.50806 7.8125 10.1575C7.8125 10.8069 7.11589 11.3293 6.25 11.3293ZM12.5 1.95435C13.3659 1.95435 14.0625 2.47681 14.0625 3.12622C14.0625 3.77563 13.3659 4.2981 12.5 4.2981C11.6341 4.2981 10.9375 3.77563 10.9375 3.12622C10.9375 2.47681 11.6341 1.95435 12.5 1.95435ZM20.8333 19.9231C20.8333 20.1379 20.599 20.3137 20.3125 20.3137H10.9375C10.651 20.3137 10.4167 20.1379 10.4167 19.9231V19.1418C10.4167 18.927 10.651 18.7512 10.9375 18.7512H20.3125C20.599 18.7512 20.8333 18.927 20.8333 19.1418V19.9231ZM20.8333 15.2356C20.8333 15.4504 20.599 15.6262 20.3125 15.6262H10.9375C10.651 15.6262 10.4167 15.4504 10.4167 15.2356V14.4543C10.4167 14.2395 10.651 14.0637 10.9375 14.0637H20.3125C20.599 14.0637 20.8333 14.2395 20.8333 14.4543V15.2356ZM20.8333 10.5481C20.8333 10.7629 20.599 10.9387 20.3125 10.9387H10.9375C10.651 10.9387 10.4167 10.7629 10.4167 10.5481V9.76685C10.4167 9.552 10.651 9.37622 10.9375 9.37622H20.3125C20.599 9.37622 20.8333 9.552 20.8333 9.76685V10.5481Z" fill="black"/>
</svg>
