<svg width="25" height="25" viewBox="0 0 25 25" fill="none" xmlns="http://www.w3.org/2000/svg">
<path fill-rule="evenodd" clip-rule="evenodd" d="M14.8219 0.316514C15.0543 0.563929 15.0923 0.943625 15.1682 1.70302C15.3128 3.14859 15.3851 3.87137 15.8388 4.12609C15.908 4.1649 15.9815 4.19536 16.0578 4.21681C16.5588 4.35755 17.121 3.89758 18.2454 2.97763C18.836 2.49437 19.1314 2.25273 19.4707 2.24214C19.5247 2.24046 19.5788 2.24315 19.6324 2.25021C19.9689 2.29451 20.2388 2.56433 20.7784 3.10397L21.8952 4.22081C22.4349 4.76046 22.7047 5.03028 22.749 5.36686C22.7561 5.42044 22.7588 5.47451 22.7571 5.52853C22.7465 5.86784 22.5049 6.16318 22.0216 6.75385C21.1016 7.87825 20.6416 8.44045 20.7824 8.94143C20.8038 9.01777 20.8343 9.09128 20.8731 9.16042C21.1278 9.6142 21.8506 9.68648 23.2962 9.83104C24.0556 9.90698 24.4354 9.94495 24.6828 10.1774C24.7222 10.2144 24.7585 10.2545 24.7914 10.2974C24.998 10.5667 24.998 10.9483 24.998 11.7115V13.2911C24.998 14.0541 24.998 14.4356 24.7914 14.7049C24.7585 14.7479 24.7221 14.7881 24.6827 14.8251C24.4353 15.0575 24.0556 15.0955 23.2963 15.1714C21.8511 15.3159 21.1284 15.3882 20.8737 15.8418C20.8348 15.911 20.8043 15.9847 20.7828 16.0612C20.6422 16.5621 21.1021 17.1241 22.0218 18.2482C22.5049 18.8387 22.7465 19.134 22.7571 19.4732C22.7588 19.5273 22.7561 19.5815 22.7491 19.6352C22.7047 19.9717 22.435 20.2414 21.8955 20.7809L21.8954 20.7809L20.7785 21.8979C20.2388 22.4376 19.969 22.7074 19.6324 22.7517C19.5788 22.7587 19.5248 22.7614 19.4707 22.7597C19.1314 22.7492 18.8361 22.5075 18.2454 22.0243C17.1211 21.1043 16.5589 20.6443 16.0579 20.7851C15.9816 20.8065 15.908 20.837 15.8389 20.8758C15.3851 21.1305 15.3128 21.8534 15.1683 23.2991C15.0923 24.0588 15.0543 24.4386 14.8218 24.686C14.7848 24.7254 14.7448 24.7616 14.702 24.7945C14.4326 25.0012 14.0509 25.0012 13.2876 25.0012H11.7083C10.9452 25.0012 10.5636 25.0012 10.2942 24.7945C10.2514 24.7616 10.2112 24.7253 10.1742 24.6859C9.94178 24.4385 9.90381 24.0588 9.82787 23.2994C9.6833 21.8538 9.61102 21.131 9.15723 20.8763C9.0881 20.8375 9.0146 20.807 8.93828 20.7856C8.43729 20.6448 7.87507 21.1048 6.75064 22.0248C6.15995 22.5081 5.8646 22.7497 5.52528 22.7603C5.47127 22.762 5.41722 22.7593 5.36365 22.7523C5.02706 22.708 4.75723 22.4381 4.21756 21.8985L3.10076 20.7817C2.5611 20.242 2.29127 19.9722 2.24697 19.6356C2.23992 19.582 2.23723 19.5279 2.23891 19.4739C2.2495 19.1346 2.49114 18.8393 2.97443 18.2486C3.89439 17.1242 4.35438 16.562 4.21362 16.061C4.19218 15.9847 4.16172 15.9112 4.12291 15.842C3.86819 15.3882 3.14541 15.316 1.69984 15.1714C0.940449 15.0955 0.560756 15.0575 0.313341 14.8251C0.273948 14.788 0.237619 14.7479 0.204713 14.705C-0.00195312 14.4357 -0.00195312 14.0541 -0.00195312 13.2909V11.7117C-0.00195312 10.9483 -0.00195312 10.5667 0.20479 10.2973C0.23765 10.2545 0.273922 10.2144 0.31325 10.1775C0.560686 9.94496 0.940454 9.90698 1.69999 9.83103C3.14585 9.68644 3.86878 9.61415 4.12347 9.16023C4.16221 9.09118 4.19261 9.01778 4.21404 8.94156C4.35492 8.4405 3.89483 7.87816 2.97464 6.75349C2.49121 6.16263 2.24949 5.8672 2.23896 5.52778C2.23729 5.47388 2.23998 5.41994 2.24701 5.36647C2.29126 5.02979 2.56116 4.75989 3.10096 4.22008L4.21761 3.10343C4.75728 2.56376 5.02712 2.29393 5.3637 2.24964C5.41727 2.24259 5.47133 2.23989 5.52534 2.24157C5.86466 2.25216 6.16004 2.49383 6.75079 2.97717C7.87509 3.89705 8.43724 4.35699 8.93812 4.21637C9.01459 4.1949 9.08823 4.1644 9.15748 4.12551C9.61109 3.87077 9.68336 3.14813 9.82788 1.70285V1.70284C9.90381 0.943615 9.94177 0.564 10.1741 0.316609C10.2112 0.277148 10.2514 0.240761 10.2943 0.207809C10.5636 0.0012207 10.9451 0.0012207 11.7082 0.0012207H13.2878C14.0509 0.0012207 14.4325 0.0012207 14.7018 0.207888C14.7447 0.240793 14.7849 0.277121 14.8219 0.316514ZM12.498 17.5012C15.2595 17.5012 17.498 15.2626 17.498 12.5012C17.498 9.7398 15.2595 7.50122 12.498 7.50122C9.73662 7.50122 7.49805 9.7398 7.49805 12.5012C7.49805 15.2626 9.73662 17.5012 12.498 17.5012Z" fill="#222222"/>
</svg>
